# xmcd
#
# Track frame offsets: 
#        150
#        1912
#        34315
#        54402
#        80246
#        91377
#        116243
#        144505
#        151036
#        153650
#        184319
#        220953
#        250182
#        267158
#
# Disc length: 3790 seconds
#
# Revision: 2
# Processed by: cddbd v1.5.2PL0 Copyright (c) Steve Scherf et al.
# Submitted via: ExactAudioCopy v0.99pb5
#
DISCID=c10ecc0e
DTITLE=Dean Brown - Groove Warrior
DYEAR=2004
DGENRE=Jazz
TTITLE0=Intro
TTITLE1=To Be With You
TTITLE2=Piggly Wiggly
TTITLE3=Forever
TTITLE4=The Divining Tree
TTITLE5=Feed My Jones
TTITLE6=In The Basement
TTITLE7=Intermission. Emergency Funk Radio
TTITLE8=Pandora's Box
TTITLE9=Break Song
TTITLE10=Hunter
TTITLE11=Shadows
TTITLE12=Blues On The Blvd. Part II
TTITLE13=Forever (Remix)
EXTD=YEAR: 2004
EXTT0=
EXTT1=
EXTT2=
EXTT3=
EXTT4=
EXTT5=
EXTT6=
EXTT7=
EXTT8=
EXTT9=
EXTT10=
EXTT11=
EXTT12=
EXTT13=
PLAYORDER=
